<?xml version="1.0" standalone="no"?>
<svg xmlns="http://www.w3.org/2000/svg" viewBox="0 0 73 64" width="73" height="64"><g fill="#055a05" color="#055a05" transform="translate(18.776 0) scale(0.35) "><svg width="100.0" height="100.0" x="0.0" y="0.0" viewBox="0 0 100 100"><path d="M50,5C31.503,5,16.509,19.997,16.509,38.491c0,20.61,29.44,54.583,29.44,54.583c2.227,2.568,5.873,2.568,8.099,0  c0,0,29.442-33.973,29.442-54.583C83.491,19.997,68.498,5,50,5z M50,52.634c-7.81,0-14.143-6.333-14.143-14.143  c0-7.811,6.333-14.14,14.143-14.14c7.813,0,14.143,6.33,14.143,14.14C64.143,46.3,57.813,52.634,50,52.634z"></path></svg></g><line x1="19.825999999999997" y1="41" x2="52.726" y2="41" stroke="#fdfff4" stroke-linecap="round"></line><path fill="#fdfff4" fill-rule="nonzero" d="M19.78 16.51L14.52 16.51L14.52 10.56Q14.52 9.46 14.60 8.29Q14.69 7.13 14.78 6.34Q14.88 5.54 14.90 5.33L14.90 5.33L14.81 5.33L11.76 16.51L7.61 16.51L4.54 5.35L4.44 5.35Q4.46 5.57 4.57 6.35Q4.68 7.13 4.78 8.29Q4.87 9.46 4.87 10.56L4.87 10.56L4.87 16.51L0 16.51L0 0L7.49 0L9.98 9.53L10.08 9.53L12.55 0L19.78 0L19.78 16.51ZM22.99 16.51L22.99 0L37.27 0L37.27 3.96L28.30 3.96L28.30 6.24L35.98 6.24L35.98 10.03L28.30 10.03L28.30 12.55L37.44 12.55L37.44 16.51L22.99 16.51ZM40.32 16.51L40.32 0L54.60 0L54.60 3.96L45.62 3.96L45.62 6.24L53.30 6.24L53.30 10.03L45.62 10.03L45.62 12.55L54.77 12.55L54.77 16.51L40.32 16.51ZM72.55 4.22L67.15 4.22L67.15 16.51L61.85 16.51L61.85 4.22L56.42 4.22L56.42 0L72.55 0L72.55 4.22Z" transform="translate(0, 47)"></path></svg>